<?xml version="1.0" encoding="UTF-8" standalone="no"?>
<!-- Generator: Adobe Illustrator 21.0.2, SVG Export Plug-In . SVG Version: 6.00 Build 0)  -->

<svg
   xmlns:dc="http://purl.org/dc/elements/1.1/"
   xmlns:cc="http://creativecommons.org/ns#"
   xmlns:rdf="http://www.w3.org/1999/02/22-rdf-syntax-ns#"
   xmlns:svg="http://www.w3.org/2000/svg"
   xmlns="http://www.w3.org/2000/svg"
   xmlns:sodipodi="http://sodipodi.sourceforge.net/DTD/sodipodi-0.dtd"
   xmlns:inkscape="http://www.inkscape.org/namespaces/inkscape"
   x="0px"
   y="0px"
   viewBox="0 0 400 225"
   xml:space="preserve"
   version="1.1"
   id="svg42"
   sodipodi:docname="icon2.svg"
   width="400"
   height="225"
   inkscape:version="0.92.3 (2405546, 2018-03-11)"><metadata
   id="metadata48"><rdf:RDF><cc:Work
       rdf:about=""><dc:format>image/svg+xml</dc:format><dc:type
         rdf:resource="http://purl.org/dc/dcmitype/StillImage" /><dc:title></dc:title></cc:Work></rdf:RDF></metadata><defs
   id="defs46" /><sodipodi:namedview
   pagecolor="#ffffff"
   bordercolor="#666666"
   borderopacity="1"
   objecttolerance="10"
   gridtolerance="10"
   guidetolerance="10"
   inkscape:pageopacity="0"
   inkscape:pageshadow="2"
   inkscape:window-width="3840"
   inkscape:window-height="2055"
   id="namedview44"
   showgrid="false"
   inkscape:zoom="1.0429825"
   inkscape:cx="-183.83563"
   inkscape:cy="315.42628"
   inkscape:window-x="-13"
   inkscape:window-y="-13"
   inkscape:window-maximized="1"
   inkscape:current-layer="svg42" />
<g
   id="g111"
   transform="matrix(5.9843819,0,0,6.1689794,89.660704,-6.1846131)">
	<path
   style="fill:#ffffff"
   d="M 6,35.5 C 4.621,35.5 3.5,34.379 3.5,33 V 6 C 3.5,4.621 4.621,3.5 6,3.5 h 27 c 1.379,0 2.5,1.121 2.5,2.5 v 27 c 0,1.379 -1.121,2.5 -2.5,2.5 z"
   id="path105"
   inkscape:connector-curvature="0" />
	<g
   id="g109">
		<path
   style="fill:#80e5ff"
   d="m 33,4 c 1.103,0 2,0.897 2,2 v 27 c 0,1.103 -0.897,2 -2,2 H 6 C 4.897,35 4,34.103 4,33 V 6 C 4,4.897 4.897,4 6,4 H 33 M 33,3 H 6 C 4.343,3 3,4.343 3,6 v 27 c 0,1.657 1.343,3 3,3 h 27 c 1.657,0 3,-1.343 3,-3 V 6 C 36,4.343 34.657,3 33,3 Z"
   id="path107"
   inkscape:connector-curvature="0" />
	</g>
</g>
<g
   id="g119"
   transform="matrix(5.9843819,0,0,6.1689794,89.660704,-6.1846131)">
	<path
   style="fill:#ffffff"
   d="M 9,13.5 C 8.173,13.5 7.5,12.827 7.5,12 V 9 C 7.5,8.173 8.173,7.5 9,7.5 h 3 c 0.827,0 1.5,0.673 1.5,1.5 v 3 c 0,0.827 -0.673,1.5 -1.5,1.5 z"
   id="path113"
   inkscape:connector-curvature="0" />
	<g
   id="g117">
		<path
   style="fill:#ffe680"
   d="m 12,8 c 0.551,0 1,0.449 1,1 v 3 c 0,0.551 -0.449,1 -1,1 H 9 C 8.449,13 8,12.551 8,12 V 9 C 8,8.449 8.449,8 9,8 h 3 M 12,7 H 9 C 7.895,7 7,7.895 7,9 v 3 c 0,1.105 0.895,2 2,2 h 3 c 1.105,0 2,-0.895 2,-2 V 9 C 14,7.895 13.105,7 12,7 Z"
   id="path115"
   inkscape:connector-curvature="0" />
	</g>
</g>
<g
   id="g127"
   transform="matrix(5.9843819,0,0,6.1689794,89.660704,-6.1846131)">
	<path
   style="fill:#ffffff"
   d="m 18,13.5 c -0.827,0 -1.5,-0.673 -1.5,-1.5 V 9 c 0,-0.827 0.673,-1.5 1.5,-1.5 h 3 c 0.827,0 1.5,0.673 1.5,1.5 v 3 c 0,0.827 -0.673,1.5 -1.5,1.5 z"
   id="path121"
   inkscape:connector-curvature="0" />
	<g
   id="g125">
		<path
   style="fill:#ff9955"
   d="m 21,8 c 0.551,0 1,0.449 1,1 v 3 c 0,0.551 -0.449,1 -1,1 h -3 c -0.551,0 -1,-0.449 -1,-1 V 9 c 0,-0.551 0.449,-1 1,-1 h 3 m 0,-1 h -3 c -1.105,0 -2,0.895 -2,2 v 3 c 0,1.105 0.895,2 2,2 h 3 c 1.105,0 2,-0.895 2,-2 V 9 C 23,7.895 22.105,7 21,7 Z"
   id="path123"
   inkscape:connector-curvature="0" />
	</g>
</g>
<g
   id="g135"
   transform="matrix(5.9843819,0,0,6.1689794,89.660704,-6.1846131)">
	<path
   style="fill:#ffffff"
   d="m 27,13.5 c -0.827,0 -1.5,-0.673 -1.5,-1.5 V 9 c 0,-0.827 0.673,-1.5 1.5,-1.5 h 3 c 0.827,0 1.5,0.673 1.5,1.5 v 3 c 0,0.827 -0.673,1.5 -1.5,1.5 z"
   id="path129"
   inkscape:connector-curvature="0" />
	<g
   id="g133">
		<path
   style="fill:#99ff55"
   d="m 30,8 c 0.551,0 1,0.449 1,1 v 3 c 0,0.551 -0.449,1 -1,1 h -3 c -0.551,0 -1,-0.449 -1,-1 V 9 c 0,-0.551 0.449,-1 1,-1 h 3 m 0,-1 h -3 c -1.105,0 -2,0.895 -2,2 v 3 c 0,1.105 0.895,2 2,2 h 3 c 1.105,0 2,-0.895 2,-2 V 9 C 32,7.895 31.105,7 30,7 Z"
   id="path131"
   inkscape:connector-curvature="0" />
	</g>
</g>
<g
   id="g143"
   transform="matrix(5.9843819,0,0,6.1689794,89.660704,-6.1846131)">
	<path
   style="fill:#ffffff"
   d="M 9,22.5 C 8.173,22.5 7.5,21.827 7.5,21 v -3 c 0,-0.827 0.673,-1.5 1.5,-1.5 h 3 c 0.827,0 1.5,0.673 1.5,1.5 v 3 c 0,0.827 -0.673,1.5 -1.5,1.5 z"
   id="path137"
   inkscape:connector-curvature="0" />
	<g
   id="g141">
		<path
   style="fill:#ffe680"
   d="m 12,17 c 0.551,0 1,0.449 1,1 v 3 c 0,0.551 -0.449,1 -1,1 H 9 C 8.449,22 8,21.551 8,21 v -3 c 0,-0.551 0.449,-1 1,-1 h 3 m 0,-1 H 9 c -1.105,0 -2,0.895 -2,2 v 3 c 0,1.105 0.895,2 2,2 h 3 c 1.105,0 2,-0.895 2,-2 v -3 c 0,-1.105 -0.895,-2 -2,-2 z"
   id="path139"
   inkscape:connector-curvature="0" />
	</g>
</g>
<g
   id="g151"
   transform="matrix(5.9843819,0,0,6.1689794,89.660704,-6.1846131)">
	<path
   style="fill:#ffffff"
   d="m 18,22.5 c -0.827,0 -1.5,-0.673 -1.5,-1.5 v -3 c 0,-0.827 0.673,-1.5 1.5,-1.5 h 3 c 0.827,0 1.5,0.673 1.5,1.5 v 3 c 0,0.827 -0.673,1.5 -1.5,1.5 z"
   id="path145"
   inkscape:connector-curvature="0" />
	<g
   id="g149">
		<path
   style="fill:#ff9955"
   d="m 21,17 c 0.551,0 1,0.449 1,1 v 3 c 0,0.551 -0.449,1 -1,1 h -3 c -0.551,0 -1,-0.449 -1,-1 v -3 c 0,-0.551 0.449,-1 1,-1 h 3 m 0,-1 h -3 c -1.105,0 -2,0.895 -2,2 v 3 c 0,1.105 0.895,2 2,2 h 3 c 1.105,0 2,-0.895 2,-2 v -3 c 0,-1.105 -0.895,-2 -2,-2 z"
   id="path147"
   inkscape:connector-curvature="0" />
	</g>
</g>
<g
   id="g159"
   transform="matrix(5.9843819,0,0,6.1689794,89.660704,-6.1846131)">
	<path
   style="fill:#ffffff"
   d="m 27,22.5 c -0.827,0 -1.5,-0.673 -1.5,-1.5 v -3 c 0,-0.827 0.673,-1.5 1.5,-1.5 h 3 c 0.827,0 1.5,0.673 1.5,1.5 v 3 c 0,0.827 -0.673,1.5 -1.5,1.5 z"
   id="path153"
   inkscape:connector-curvature="0" />
	<g
   id="g157">
		<path
   style="fill:#99ff55"
   d="m 30,17 c 0.551,0 1,0.449 1,1 v 3 c 0,0.551 -0.449,1 -1,1 h -3 c -0.551,0 -1,-0.449 -1,-1 v -3 c 0,-0.551 0.449,-1 1,-1 h 3 m 0,-1 h -3 c -1.105,0 -2,0.895 -2,2 v 3 c 0,1.105 0.895,2 2,2 h 3 c 1.105,0 2,-0.895 2,-2 v -3 c 0,-1.105 -0.895,-2 -2,-2 z"
   id="path155"
   inkscape:connector-curvature="0" />
	</g>
</g>
<g
   id="g167"
   transform="matrix(5.9843819,0,0,6.1689794,89.660704,-6.1846131)">
	<path
   style="fill:#ffffff"
   d="M 9,31.5 C 8.173,31.5 7.5,30.827 7.5,30 v -3 c 0,-0.827 0.673,-1.5 1.5,-1.5 h 3 c 0.827,0 1.5,0.673 1.5,1.5 v 3 c 0,0.827 -0.673,1.5 -1.5,1.5 z"
   id="path161"
   inkscape:connector-curvature="0" />
	<g
   id="g165">
		<path
   style="fill:#ffe680"
   d="m 12,26 c 0.551,0 1,0.449 1,1 v 3 c 0,0.551 -0.449,1 -1,1 H 9 C 8.449,31 8,30.551 8,30 v -3 c 0,-0.551 0.449,-1 1,-1 h 3 m 0,-1 H 9 c -1.105,0 -2,0.895 -2,2 v 3 c 0,1.105 0.895,2 2,2 h 3 c 1.105,0 2,-0.895 2,-2 v -3 c 0,-1.105 -0.895,-2 -2,-2 z"
   id="path163"
   inkscape:connector-curvature="0" />
	</g>
</g>
<g
   id="g175"
   transform="matrix(5.9843819,0,0,6.1689794,89.660704,-6.1846131)">
	<path
   style="fill:#ffffff"
   d="m 18,31.5 c -0.827,0 -1.5,-0.673 -1.5,-1.5 v -3 c 0,-0.827 0.673,-1.5 1.5,-1.5 h 3 c 0.827,0 1.5,0.673 1.5,1.5 v 3 c 0,0.827 -0.673,1.5 -1.5,1.5 z"
   id="path169"
   inkscape:connector-curvature="0" />
	<g
   id="g173">
		<path
   style="fill:#ff9955"
   d="m 21,26 c 0.551,0 1,0.449 1,1 v 3 c 0,0.551 -0.449,1 -1,1 h -3 c -0.551,0 -1,-0.449 -1,-1 v -3 c 0,-0.551 0.449,-1 1,-1 h 3 m 0,-1 h -3 c -1.105,0 -2,0.895 -2,2 v 3 c 0,1.105 0.895,2 2,2 h 3 c 1.105,0 2,-0.895 2,-2 v -3 c 0,-1.105 -0.895,-2 -2,-2 z"
   id="path171"
   inkscape:connector-curvature="0" />
	</g>
</g>
<g
   id="g183"
   transform="matrix(5.9843819,0,0,6.1689794,89.660704,-6.1846131)">
	<path
   style="fill:#ffffff"
   d="m 27,31.5 c -0.827,0 -1.5,-0.673 -1.5,-1.5 v -3 c 0,-0.827 0.673,-1.5 1.5,-1.5 h 3 c 0.827,0 1.5,0.673 1.5,1.5 v 3 c 0,0.827 -0.673,1.5 -1.5,1.5 z"
   id="path177"
   inkscape:connector-curvature="0" />
	<g
   id="g181">
		<path
   style="fill:#99ff55"
   d="m 30,26 c 0.551,0 1,0.449 1,1 v 3 c 0,0.551 -0.449,1 -1,1 h -3 c -0.551,0 -1,-0.449 -1,-1 v -3 c 0,-0.551 0.449,-1 1,-1 h 3 m 0,-1 h -3 c -1.105,0 -2,0.895 -2,2 v 3 c 0,1.105 0.895,2 2,2 h 3 c 1.105,0 2,-0.895 2,-2 v -3 c 0,-1.105 -0.895,-2 -2,-2 z"
   id="path179"
   inkscape:connector-curvature="0" />
	</g>
</g>
</svg>